# xmcd CD database file
#
# Track frame offsets:
#	150
#	15943
#	32231
#	45358
#	52390
#	68301
#	86268
#	97924
#	115103
#	131083
#	148976
#	166380
#	177681
#	193227
#
# Disc length: 2809 seconds
#
# Revision: 0
# Processed by: cddbd v1.5.1PL0 Copyright (c) Steve Scherf et al.
# Submitted via: CDex 1.51
#
DISCID=be0af70e
DTITLE=Grupa Furmana - Kredki
DYEAR=2001
DGENRE=Country
TTITLE0=Kredki
TTITLE1=Polanica 98
TTITLE2=Wiesniak
TTITLE3=Sasiedzi
TTITLE4=Sopotnia
TTITLE5=Taki dzien, taki swiat, taki ja
TTITLE6=Cocaine
TTITLE7=Krok
TTITLE8=Mojos Amigos
TTITLE9=Powracam do Country
TTITLE10=Odmierzam asfaltem godziny
TTITLE11=Furmankan
TTITLE12=Poczucie nieswiadomosci
TTITLE13=Modlitwa wracajacych
EXTD=YEAR: 2001
EXTT0=
EXTT1=
EXTT2=
EXTT3=
EXTT4=
EXTT5=
EXTT6=
EXTT7=
EXTT8=
EXTT9=
EXTT10=
EXTT11=
EXTT12=
EXTT13=
PLAYORDER=
